<svg width="130" height="116" viewBox="0 0 130 116" fill="none" xmlns="http://www.w3.org/2000/svg">
<path d="M38.2804 16.3509C34.5539 17.5005 30.7895 15.9971 30.7895 15.9971C30.7895 15.9971 33.0633 12.6366 36.7772 11.487C40.5037 10.3374 44.2681 11.8407 44.2681 11.8407C44.2681 11.8407 41.9943 15.2012 38.2804 16.3509Z" fill="#BFBFBF"/>
<path d="M31.3453 6.69893C29.0715 9.85729 29.2989 13.9126 29.2989 13.9126C29.2989 13.9126 33.2149 12.8388 35.4887 9.66779C37.7625 6.50943 37.5351 2.45411 37.5351 2.45411C37.5351 2.45411 33.6191 3.52795 31.3453 6.69893Z" fill="#BFBFBF"/>
<path d="M25.8629 25.3332C22.3512 27.0261 18.3973 26.0912 18.3973 26.0912C18.3973 26.0912 20.1406 22.4275 23.6523 20.7347C27.1641 19.0418 31.1179 19.9767 31.1179 19.9767C31.1179 19.9767 29.3747 23.6403 25.8629 25.3332Z" fill="#BFBFBF"/>
<path d="M17.5762 16.8183C15.7951 20.2799 16.6162 24.2594 16.6162 24.2594C16.6162 24.2594 20.33 22.617 22.1112 19.1428C23.8923 15.6813 23.0712 11.7018 23.0712 11.7018C23.0712 11.7018 19.3574 13.3441 17.5889 16.8183H17.5762Z" fill="#BFBFBF"/>
<path d="M17.3488 37.335C14.5319 40.0385 10.4896 40.3796 10.4896 40.3796C10.4896 40.3796 11.0075 36.3496 13.8118 33.6586C16.6288 30.9677 20.6711 30.614 20.6711 30.614C20.6711 30.614 20.1532 34.644 17.3488 37.335Z" fill="#BFBFBF"/>
<path d="M6.82622 31.8268C6.21987 35.68 8.22839 39.1921 8.22839 39.1921C8.22839 39.1921 11.2349 36.4759 11.8538 32.6227C12.4602 28.7695 10.4517 25.2574 10.4517 25.2574C10.4517 25.2574 7.4452 27.9736 6.82622 31.8268Z" fill="#BFBFBF"/>
<path d="M12.0686 53.2152C10.0095 56.5251 6.18198 57.8643 6.18198 57.8643C6.18198 57.8643 5.68932 53.8342 7.73574 50.5242C9.79478 47.2143 13.6223 45.8751 13.6223 45.8751C13.6223 45.8751 14.115 49.9052 12.0686 53.2152Z" fill="#BFBFBF"/>
<path d="M0.497487 50.4863C0.863821 54.3648 3.6808 57.2705 3.6808 57.2705C3.6808 57.2705 5.92933 53.8847 5.563 50.0063C5.19667 46.1278 2.36705 43.2221 2.36705 43.2221C2.36705 43.2221 0.118521 46.6079 0.484855 50.4863H0.497487Z" fill="#BFBFBF"/>
<path d="M12.8139 68.9817C12.0307 72.797 8.91053 75.3868 8.91053 75.3868C8.91053 75.3868 7.04097 71.7863 7.82416 67.9584C8.60736 64.1431 11.7275 61.5532 11.7275 61.5532C11.7275 61.5532 13.5971 65.1537 12.8139 68.9817Z" fill="#BFBFBF"/>
<path d="M1.01541 70.4345C2.69549 73.9466 6.35883 75.69 6.35883 75.69C6.35883 75.69 7.29361 71.7357 5.60089 68.2237C3.92081 64.7116 0.257475 62.9682 0.257475 62.9682C0.257475 62.9682 -0.677307 66.9224 1.01541 70.4345Z" fill="#BFBFBF"/>
<path d="M18.3215 86.062C18.5363 89.9531 16.174 93.2504 16.174 93.2504C16.174 93.2504 13.4581 90.2437 13.2307 86.3526C13.016 82.4615 15.3782 79.1642 15.3782 79.1642C15.3782 79.1642 18.0941 82.171 18.3215 86.062Z" fill="#BFBFBF"/>
<path d="M7.28098 90.4711C9.80742 93.4399 13.7866 94.198 13.7866 94.198C13.7866 94.198 13.6855 90.1426 11.1591 87.1738C8.63262 84.2049 4.65348 83.4469 4.65348 83.4469C4.65348 83.4469 4.75454 87.5023 7.28098 90.4711Z" fill="#BFBFBF"/>
<path d="M29.0841 97.3563C30.9537 100.78 30.2337 104.772 30.2337 104.772C30.2337 104.772 26.4819 103.218 24.6124 99.8072C22.7428 96.3835 23.4628 92.3914 23.4628 92.3914C23.4628 92.3914 27.2146 93.9453 29.0841 97.3563Z" fill="#BFBFBF"/>
<path d="M21.0122 106.086C24.5618 107.678 28.4904 106.655 28.4904 106.655C28.4904 106.655 26.6588 103.041 23.0965 101.437C19.5468 99.8451 15.6182 100.868 15.6182 100.868C15.6182 100.868 17.4499 104.482 21.0122 106.086Z" fill="#BFBFBF"/>
<path d="M43.0301 104.898C46.0366 107.387 46.845 111.354 46.845 111.354C46.845 111.354 42.7901 111.304 39.7836 108.815C36.7772 106.326 35.9687 102.347 35.9687 102.347C35.9687 102.347 40.0236 102.397 43.0301 104.886V104.898Z" fill="#BFBFBF"/>
<path d="M38.7604 115.991C42.6511 116.155 45.9229 113.754 45.9229 113.754C45.9229 113.754 42.8785 111.076 38.9878 110.899C35.0971 110.735 31.8253 113.148 31.8253 113.148C31.8253 113.148 34.8697 115.826 38.7604 115.991Z" fill="#BFBFBF"/>
<path d="M48.2598 5.90303C44.9249 7.92437 40.9079 7.38114 40.9079 7.38114C40.9079 7.38114 42.2974 3.56585 45.6197 1.5445C48.9546 -0.476845 52.9716 0.066392 52.9716 0.066392C52.9716 0.066392 51.5947 3.88168 48.2598 5.90303Z" fill="#BFBFBF"/>
<path d="M90.7293 16.3509C94.4558 17.5005 98.2202 15.9971 98.2202 15.9971C98.2202 15.9971 95.9464 12.6366 92.2325 11.487C88.506 10.3374 84.7416 11.8407 84.7416 11.8407C84.7416 11.8407 87.0028 15.2012 90.7293 16.3509Z" fill="#BFBFBF"/>
<path d="M97.6644 6.69893C99.9381 9.85729 99.7108 13.9126 99.7108 13.9126C99.7108 13.9126 95.7948 12.8388 93.521 9.66779C91.2472 6.50943 91.4746 2.45411 91.4746 2.45411C91.4746 2.45411 95.3906 3.52795 97.6644 6.69893Z" fill="#BFBFBF"/>
<path d="M103.134 25.3332C106.646 27.0261 110.6 26.0912 110.6 26.0912C110.6 26.0912 108.856 22.4275 105.345 20.7347C101.833 19.0418 97.8791 19.9767 97.8791 19.9767C97.8791 19.9767 99.6223 23.6403 103.134 25.3332Z" fill="#BFBFBF"/>
<path d="M111.433 16.8183C113.215 20.2799 112.393 24.2594 112.393 24.2594C112.393 24.2594 108.68 22.617 106.911 19.1428C105.13 15.6813 105.951 11.7018 105.951 11.7018C105.951 11.7018 109.665 13.3441 111.446 16.8183H111.433Z" fill="#BFBFBF"/>
<path d="M111.661 37.335C114.478 40.0385 118.52 40.3796 118.52 40.3796C118.52 40.3796 118.002 36.3496 115.198 33.6586C112.381 30.9677 108.339 30.614 108.339 30.614C108.339 30.614 108.856 34.644 111.661 37.335Z" fill="#BFBFBF"/>
<path d="M122.183 31.8268C122.79 35.68 120.781 39.1921 120.781 39.1921C120.781 39.1921 117.775 36.4759 117.156 32.6227C116.549 28.7695 118.558 25.2574 118.558 25.2574C118.558 25.2574 121.564 27.9736 122.183 31.8268Z" fill="#BFBFBF"/>
<path d="M116.941 53.2152C119 56.5251 122.828 57.8643 122.828 57.8643C122.828 57.8643 123.32 53.8342 121.274 50.5242C119.215 47.2143 115.387 45.8751 115.387 45.8751C115.387 45.8751 114.895 49.9052 116.941 53.2152Z" fill="#BFBFBF"/>
<path d="M128.512 50.4863C128.146 54.3648 125.329 57.2705 125.329 57.2705C125.329 57.2705 123.08 53.8847 123.447 50.0063C123.813 46.1278 126.643 43.2221 126.643 43.2221C126.643 43.2221 128.891 46.6079 128.525 50.4863H128.512Z" fill="#BFBFBF"/>
<path d="M116.196 68.9817C116.979 72.797 120.099 75.3868 120.099 75.3868C120.099 75.3868 121.969 71.7863 121.186 67.9584C120.402 64.1431 117.282 61.5532 117.282 61.5532C117.282 61.5532 115.425 65.1537 116.196 68.9817Z" fill="#BFBFBF"/>
<path d="M127.994 70.4345C126.314 73.9466 122.651 75.69 122.651 75.69C122.651 75.69 121.716 71.7357 123.409 68.2237C125.089 64.7116 128.752 62.9682 128.752 62.9682C128.752 62.9682 129.687 66.9224 127.994 70.4345Z" fill="#BFBFBF"/>
<path d="M110.688 86.062C110.473 89.9531 112.836 93.2504 112.836 93.2504C112.836 93.2504 115.552 90.2437 115.779 86.3526C115.994 82.4615 113.631 79.1642 113.631 79.1642C113.631 79.1642 110.916 82.171 110.688 86.062Z" fill="#BFBFBF"/>
<path d="M121.729 90.4711C119.202 93.4399 115.223 94.198 115.223 94.198C115.223 94.198 115.324 90.1426 117.851 87.1738C120.377 84.2049 124.356 83.4469 124.356 83.4469C124.356 83.4469 124.255 87.5023 121.729 90.4711Z" fill="#BFBFBF"/>
<path d="M99.9255 97.3563C98.0559 100.78 98.776 104.772 98.776 104.772C98.776 104.772 102.528 103.218 104.397 99.8072C106.267 96.3835 105.547 92.3914 105.547 92.3914C105.547 92.3914 101.795 93.9453 99.9255 97.3563Z" fill="#BFBFBF"/>
<path d="M107.985 106.086C104.435 107.678 100.507 106.655 100.507 106.655C100.507 106.655 102.351 103.041 105.901 101.437C109.45 99.8451 113.379 100.868 113.379 100.868C113.379 100.868 111.547 104.482 107.985 106.086Z" fill="#BFBFBF"/>
<path d="M85.9796 104.898C82.9731 107.387 82.1646 111.354 82.1646 111.354C82.1646 111.354 86.2196 111.304 89.226 108.815C92.2199 106.326 93.0283 102.347 93.0283 102.347C93.0283 102.347 88.9734 102.397 85.9669 104.886L85.9796 104.898Z" fill="#BFBFBF"/>
<path d="M90.2493 115.991C86.3585 116.155 83.0868 113.754 83.0868 113.754C83.0868 113.754 86.1312 111.076 90.0219 110.899C93.9126 110.735 97.1843 113.148 97.1843 113.148C97.1843 113.148 94.14 115.826 90.2493 115.991Z" fill="#BFBFBF"/>
<path d="M80.7498 5.90303C84.0847 7.92437 88.1018 7.38114 88.1018 7.38114C88.1018 7.38114 86.7122 3.56585 83.39 1.5445C80.0551 -0.476845 76.038 0.066392 76.038 0.066392C76.038 0.066392 77.4276 3.88168 80.7498 5.90303Z" fill="#BFBFBF"/>
<path d="M80.3456 66.9224V56.3735L74.6359 66.9224H80.3456Z" fill="#001025"/>
<path d="M48.6641 66.9224H54.3612L48.6641 56.3735V66.9224Z" fill="#001025"/>
<path d="M47.4514 66.9224V56.4114L41.7669 66.9224H47.4514Z" fill="#001025"/>
<path d="M81.5583 66.9224H87.2428L81.5583 56.4114V66.9224Z" fill="#001025"/>
<path d="M99.9887 70.245C98.9655 64.7874 96.6917 59.7466 94.14 54.7943C91.083 48.8693 91.6767 43.1463 95.479 37.714C96.3632 36.438 97.538 35.3515 98.637 34.1134C95.8706 31.0814 93.0536 28.0115 90.1987 24.8911C89.8829 25.0553 89.6176 25.2069 89.3397 25.3458C87.3565 26.4323 85.2216 27.1019 82.9478 27.3672C76.9223 28.062 71.3641 26.6597 66.1849 23.8172C65.3007 23.3371 64.7322 23.2992 63.8353 23.7919C58.6309 26.6724 53.0348 28.062 46.984 27.3546C44.4196 27.0514 42.0448 26.2302 39.8089 24.8658C36.9414 27.9989 34.1118 31.0814 31.2316 34.2398C31.6232 34.5809 31.9643 34.8588 32.2801 35.162C35.5266 38.3077 37.4088 42.022 37.6867 46.4436C37.9014 49.7789 36.9161 52.7856 35.3624 55.7418C32.3812 61.4142 30.0316 67.2888 29.5263 73.6939C29.021 80.1875 31.0295 85.8473 35.7161 90.6101C39.7078 94.6654 44.647 97.4195 49.9146 99.643C55.2833 101.917 60.4878 104.431 65.0101 108.069C68.7619 104.936 73.12 102.738 77.5665 100.704C79.6256 99.7567 81.7478 98.9229 83.7816 97.9122C88.2786 95.6887 92.3967 92.9472 95.6053 89.1446C100.342 83.5353 101.302 77.1049 100.014 70.2197L99.9887 70.245ZM80.952 71.382C76.8591 71.382 73.5242 69.4744 73.3726 67.0993C73.3221 66.9477 73.3347 66.7835 73.4232 66.6319L79.7519 54.9207H72.88C68.6482 54.9207 65.2122 58.357 65.2122 62.5892V65.3685C65.9828 70.0934 67.0818 77.2439 67.0818 79.7201C67.0818 80.3896 67.0439 81.0466 66.9807 81.653H70.1388C70.7451 81.653 71.2252 82.1457 71.2252 82.7394C71.2252 83.3332 70.7325 83.8259 70.1388 83.8259H70.682C72.1347 83.8259 73.3095 85.0135 73.3095 86.4537C73.3095 87.8939 72.122 89.0814 70.682 89.0814H58.2772C56.8245 89.0814 55.6497 87.8939 55.6497 86.4537C55.6497 85.0135 56.8371 83.8259 58.2772 83.8259H58.9088C58.3024 83.8259 57.8224 83.3332 57.8224 82.7394C57.8224 82.1457 58.3151 81.653 58.9088 81.653H61.9784C61.9152 81.0339 61.8773 80.3896 61.8773 79.7201C61.8773 77.1555 63.0648 69.5375 63.8353 64.8379V62.5892C63.8353 58.357 60.3994 54.9207 56.1676 54.9207H49.2957L55.6244 66.6319C55.7002 66.7835 55.7128 66.9477 55.6749 67.0993C55.5107 69.4744 52.1884 71.382 48.0956 71.382C44.0028 71.382 40.5037 69.3859 40.5037 66.9224H40.5163C40.5163 66.8214 40.5289 66.7203 40.5794 66.6319L46.9082 54.9207H42.7396C42.3606 54.9207 42.0448 54.6048 42.0448 54.2258C42.0448 53.8468 42.3606 53.531 42.7396 53.531H56.1802C59.4141 53.531 62.2437 55.2365 63.848 57.7885V54.4153C62.7237 54.049 61.89 52.7477 61.89 51.1938C61.89 49.3493 64.5048 42.1357 64.5048 42.1357C64.5048 42.1357 67.1071 49.3493 67.1071 51.1938C67.1071 52.7098 66.3112 53.9732 65.2375 54.3774V57.7885C66.8418 55.2365 69.6714 53.531 72.9052 53.531H86.3459C86.7249 53.531 87.0407 53.8468 87.0407 54.2258C87.0407 54.6048 86.7249 54.9207 86.3459 54.9207H82.1773L88.506 66.6319C88.5565 66.7203 88.5692 66.8214 88.5692 66.9224H88.5818C88.5818 69.3859 85.1837 71.382 80.9898 71.382H80.952Z" fill="#001025"/>
</svg>
