<svg width="117" height="114" viewBox="0 0 117 114" fill="none" xmlns="http://www.w3.org/2000/svg">
<path fill-rule="evenodd" clip-rule="evenodd" d="M35.979 86.8409V89.295H81.021V86.8409H35.979ZM38.4386 81.9326V84.3867H54.8102V31.8425L52.3506 33.2595V81.9326H38.4386ZM78.5613 84.3867V81.9326H64.6494V33.2595L62.1897 31.8425V84.3867H78.5613ZM30.9242 48.013L36.9822 58.4818H24.8666L30.9242 48.013ZM75.7573 60.9359H96.3941L87.3058 45.2301V40.6427L58.5 24.0497L29.6946 40.6427V45.2301L20.6063 60.9359H41.2426L32.1543 45.2301V42.0598L58.5004 26.8834L84.8461 42.0598V45.2301L75.7573 60.9359ZM86.0757 48.013L80.0177 58.4818H92.1337L86.0757 48.013ZM58.5 21.216L27.2349 39.2261V44.5726L24.7752 48.8233V37.8095L58.5 18.3823L92.2252 37.8095V48.8233L89.7655 44.5726V39.2261L58.5 21.216ZM40.9475 63.39C39.8236 67.9752 35.6886 71.2306 30.9242 71.2306C26.1598 71.2306 22.0248 67.9752 20.9014 63.39H40.9475ZM37.0532 65.8442H24.7957C26.236 67.6321 28.4463 68.7764 30.9242 68.7764C33.4022 68.7764 35.6129 67.6321 37.0532 65.8442ZM96.099 63.39C94.9752 67.9752 90.8401 71.2306 86.0757 71.2306C81.3113 71.2306 77.1763 67.9752 76.0529 63.39H96.099ZM92.2047 65.8442H79.9476C81.3879 67.6321 83.5982 68.7764 86.0762 68.7764C88.5541 68.7764 90.7644 67.6321 92.2047 65.8442ZM57.2704 30.4258V84.3867H59.73V30.4258L58.5 29.7171L57.2704 30.4258Z" fill="#001025"/>
<path fill-rule="evenodd" clip-rule="evenodd" d="M45.7637 110.612C47.5683 111.037 49.3747 111.368 51.1784 111.608L48.3204 114C46.407 113.66 44.4927 113.223 42.5828 112.684L45.7637 110.612Z" fill="#C5C5C5"/>
<path fill-rule="evenodd" clip-rule="evenodd" d="M51.3011 111.065C49.5022 110.827 47.7002 110.498 45.9004 110.075L44.2046 106.741C45.8599 107.21 47.5196 107.594 49.1783 107.896L51.3011 111.065Z" fill="#C5C5C5"/>
<path fill-rule="evenodd" clip-rule="evenodd" d="M38.8077 108.495C40.5414 109.15 42.2894 109.714 44.0461 110.187L40.9005 112.186C39.048 111.601 37.2068 110.918 35.3839 110.136L38.8077 108.495Z" fill="#C5C5C5"/>
<path fill-rule="evenodd" clip-rule="evenodd" d="M44.2385 109.664C42.4862 109.194 40.7425 108.633 39.0127 107.98L37.767 104.454C39.347 105.134 40.9423 105.731 42.5475 106.245L44.2385 109.664Z" fill="#C5C5C5"/>
<path fill-rule="evenodd" clip-rule="evenodd" d="M32.1869 105.492C33.8205 106.367 35.4801 107.152 37.1594 107.85L33.7796 109.424C32.0189 108.602 30.2831 107.686 28.5777 106.673L32.1869 105.492Z" fill="#C5C5C5"/>
<path fill-rule="evenodd" clip-rule="evenodd" d="M37.4192 107.357C35.743 106.663 34.0873 105.88 32.4581 105.007L31.6833 101.35C33.161 102.23 34.6645 103.028 36.1887 103.747L37.4192 107.357Z" fill="#C5C5C5"/>
<path fill-rule="evenodd" clip-rule="evenodd" d="M26.0157 101.653C27.5205 102.733 29.0635 103.727 30.6378 104.638L27.0813 105.759C25.4434 104.715 23.8416 103.581 22.2829 102.356L26.0157 101.653Z" fill="#C5C5C5"/>
<path fill-rule="evenodd" clip-rule="evenodd" d="M30.959 104.182C29.3877 103.276 27.8486 102.285 26.3474 101.208L26.0571 97.4803C27.4073 98.5452 28.7936 99.5323 30.2108 100.443L30.959 104.182Z" fill="#C5C5C5"/>
<path fill-rule="evenodd" clip-rule="evenodd" d="M20.3978 97.0448C21.7488 98.3116 23.1487 99.498 24.5907 100.605L20.9179 101.254C19.4298 100.007 17.9903 98.6737 16.6049 97.2558L20.3978 97.0448Z" fill="#C5C5C5"/>
<path fill-rule="evenodd" clip-rule="evenodd" d="M24.9689 100.195C23.5295 99.0924 22.1327 97.9094 20.7847 96.6465L20.9837 92.9134C22.1832 94.1446 23.4285 95.3037 24.7152 96.3912L24.9689 100.195Z" fill="#C5C5C5"/>
<path fill-rule="evenodd" clip-rule="evenodd" d="M15.4297 91.7452C16.604 93.1766 17.8367 94.5355 19.122 95.8205L15.3962 95.986C14.0834 94.5559 12.8303 93.0476 11.642 91.4612L15.4297 91.7452Z" fill="#C5C5C5"/>
<path fill-rule="evenodd" clip-rule="evenodd" d="M19.5503 95.4631C18.2672 94.1828 17.0367 92.8283 15.8654 91.4008L16.55 87.7255C17.5786 89.1017 18.6624 90.4133 19.7954 91.6588L19.5503 95.4631Z" fill="#C5C5C5"/>
<path fill-rule="evenodd" clip-rule="evenodd" d="M11.1963 85.845C12.1735 87.4167 13.2185 88.9245 14.3245 90.3655L10.6087 90.0454C9.4944 88.4568 8.44846 86.7983 7.47739 85.0711L11.1963 85.845Z" fill="#C5C5C5"/>
<path fill-rule="evenodd" clip-rule="evenodd" d="M14.7959 90.0671C13.6912 88.6305 12.6483 87.1279 11.6729 85.5602L12.8316 82.0051C13.6716 83.5034 14.5744 84.9443 15.5354 86.3267L14.7959 90.0671Z" fill="#C5C5C5"/>
<path fill-rule="evenodd" clip-rule="evenodd" d="M7.76945 79.445C8.53291 81.1305 9.3721 82.7608 10.2809 84.3337L6.63864 83.5329C5.74112 81.8132 4.92109 80.0326 4.18375 78.1943L7.76945 79.445Z" fill="#C5C5C5"/>
<path fill-rule="evenodd" clip-rule="evenodd" d="M10.7871 84.0988C9.87918 82.531 9.04172 80.9055 8.27957 79.2244L9.8931 75.85C10.5303 77.4447 11.2372 78.9912 12.0098 80.4864L10.7871 84.0988Z" fill="#C5C5C5"/>
<path fill-rule="evenodd" clip-rule="evenodd" d="M5.20748 72.6537C5.74416 74.4243 6.36354 76.1497 7.05909 77.8269L3.55261 76.5596C2.88709 74.7378 2.30644 72.8661 1.81589 70.947L5.20748 72.6537Z" fill="#C5C5C5"/>
<path fill-rule="evenodd" clip-rule="evenodd" d="M7.59186 77.6601C6.89674 75.9877 6.27823 74.2671 5.74242 72.5013L7.78251 69.3658C8.20602 71.0299 8.70483 72.6546 9.27547 74.238L7.59186 77.6601Z" fill="#C5C5C5"/>
<path fill-rule="evenodd" clip-rule="evenodd" d="M3.55478 65.5875C3.85598 67.4128 4.24425 69.2038 4.71477 70.9574L1.40371 69.245C0.981935 67.352 0.6507 65.4207 0.414787 63.4547L3.55478 65.5875Z" fill="#C5C5C5"/>
<path fill-rule="evenodd" clip-rule="evenodd" d="M5.26494 70.861C4.79398 69.1126 4.4053 67.3259 4.10496 65.5059L6.53722 62.6622C6.73962 64.3672 7.02211 66.0431 7.3812 67.6868L5.26494 70.861Z" fill="#C5C5C5"/>
<path fill-rule="evenodd" clip-rule="evenodd" d="M2.83877 58.3662C2.89883 60.215 3.05031 62.0416 3.28753 63.8413L0.228052 61.7128C0.0574286 59.7811 -0.0187384 57.8234 0.00389534 55.8431L2.83877 58.3662Z" fill="#C5C5C5"/>
<path fill-rule="evenodd" clip-rule="evenodd" d="M3.84554 63.8178C3.60702 62.0229 3.4551 60.2015 3.39504 58.3571L6.17812 55.8539C6.15592 57.5706 6.21773 59.2687 6.35832 60.9455L3.84554 63.8178Z" fill="#C5C5C5"/>
<path fill-rule="evenodd" clip-rule="evenodd" d="M3.07208 51.1137C2.89058 52.9547 2.80178 54.7852 2.80178 56.6005L0.0465575 54.0925C0.129258 52.1552 0.309893 50.2039 0.590638 48.2436L3.07208 51.1137Z" fill="#C5C5C5"/>
<path fill-rule="evenodd" clip-rule="evenodd" d="M3.35804 56.6495C3.35586 54.839 3.44336 53.0129 3.62443 51.1767L6.71045 49.0565C6.46452 50.7559 6.30392 52.4479 6.22426 54.1281L3.35804 56.6495Z" fill="#C5C5C5"/>
<path fill-rule="evenodd" clip-rule="evenodd" d="M4.25034 43.9533C3.82987 45.7547 3.50256 47.5583 3.26621 49.3579L0.861807 46.513C1.19696 44.603 1.63048 42.6921 2.16542 40.7848L4.25034 43.9533Z" fill="#C5C5C5"/>
<path fill-rule="evenodd" clip-rule="evenodd" d="M3.81116 49.4791C4.04533 47.6838 4.37091 45.885 4.79007 44.0875L8.1268 42.3868C7.66107 44.0397 7.28021 45.6961 6.98249 47.352L3.81116 49.4791Z" fill="#C5C5C5"/>
<path fill-rule="evenodd" clip-rule="evenodd" d="M6.35397 37.0074C5.70151 38.7389 5.14177 40.4842 4.67212 42.2379L2.65989 39.1045C3.24184 37.2545 3.92128 35.4162 4.7004 33.5948L6.35397 37.0074Z" fill="#C5C5C5"/>
<path fill-rule="evenodd" clip-rule="evenodd" d="M5.1966 42.4285C5.66364 40.6788 6.22078 38.9373 6.8715 37.2102L10.4015 35.9577C9.72378 37.5359 9.13008 39.1288 8.61865 40.7318L5.1966 42.4285Z" fill="#C5C5C5"/>
<path fill-rule="evenodd" clip-rule="evenodd" d="M9.34685 30.3937C8.47371 32.0253 7.6911 33.6834 6.99642 35.361L5.41032 31.9927C6.22861 30.2339 7.14267 28.4998 8.15292 26.7952L9.34685 30.3937Z" fill="#C5C5C5"/>
<path fill-rule="evenodd" clip-rule="evenodd" d="M7.49132 35.6185C8.18252 33.9444 8.96251 32.2906 9.83304 30.6625L13.4967 29.8799C12.6187 31.3565 11.8222 32.8587 11.1058 34.3813L7.49132 35.6185Z" fill="#C5C5C5"/>
<path fill-rule="evenodd" clip-rule="evenodd" d="M13.178 24.226C12.0995 25.7304 11.1066 27.2725 10.1987 28.8455L9.06654 25.3C10.1077 23.6627 11.2403 22.062 12.4647 20.5033L13.178 24.226Z" fill="#C5C5C5"/>
<path fill-rule="evenodd" clip-rule="evenodd" d="M10.6561 29.1651C11.5602 27.5952 12.5495 26.0565 13.6251 24.5561L17.3601 24.2564C16.2967 25.6062 15.3108 26.992 14.4011 28.4086L10.6561 29.1651Z" fill="#C5C5C5"/>
<path fill-rule="evenodd" clip-rule="evenodd" d="M17.7818 18.6086C16.5161 19.9601 15.3304 21.3597 14.2244 22.8011L13.565 19.1388C14.8112 17.651 16.1431 16.2109 17.5607 14.8251L17.7818 18.6086Z" fill="#C5C5C5"/>
<path fill-rule="evenodd" clip-rule="evenodd" d="M14.6362 23.1777C15.7374 21.7384 16.9196 20.3418 18.1819 18.9938L21.9238 19.1823C20.6933 20.3822 19.5347 21.6281 18.4482 22.9145L14.6362 23.1777Z" fill="#C5C5C5"/>
<path fill-rule="evenodd" clip-rule="evenodd" d="M23.0803 13.6378C21.6487 14.8129 20.2903 16.0467 19.0058 17.3322L18.83 13.6152C20.2598 12.3019 21.7684 11.0477 23.355 9.85778L23.0803 13.6378Z" fill="#C5C5C5"/>
<path fill-rule="evenodd" clip-rule="evenodd" d="M19.3649 17.7587C20.645 16.4749 21.9991 15.2442 23.4268 14.0716L27.1122 14.7452C25.7354 15.7753 24.424 16.8597 23.1787 17.9941L19.3649 17.7587Z" fill="#C5C5C5"/>
<path fill-rule="evenodd" clip-rule="evenodd" d="M28.9825 9.39831C27.4095 10.3772 25.9017 11.4242 24.4601 12.5317L24.7713 8.82332C26.36 7.70721 28.0201 6.65972 29.7481 5.68649L28.9825 9.39831Z" fill="#C5C5C5"/>
<path fill-rule="evenodd" clip-rule="evenodd" d="M24.7604 13.0011C26.1973 11.895 27.7007 10.8501 29.2694 9.87341L32.8355 11.0204C31.336 11.8624 29.894 12.767 28.5111 13.7298L24.7604 13.0011Z" fill="#C5C5C5"/>
<path fill-rule="evenodd" clip-rule="evenodd" d="M35.3883 5.96226C33.7012 6.72834 32.069 7.57041 30.4955 8.48067L31.2885 4.84442C33.01 3.94459 34.792 3.12162 36.6332 2.3816L35.3883 5.96226Z" fill="#C5C5C5"/>
<path fill-rule="evenodd" clip-rule="evenodd" d="M30.7318 8.98574C32.301 8.07592 33.9276 7.23514 35.6107 6.47081L38.9966 8.07157C37.4001 8.7117 35.8523 9.42089 34.3554 10.1956L30.7318 8.98574Z" fill="#C5C5C5"/>
<path fill-rule="evenodd" clip-rule="evenodd" d="M42.188 3.38871C40.4152 3.92895 38.6872 4.55128 37.0079 5.24961L38.2689 1.74755C40.0931 1.07919 41.9673 0.495082 43.8895 0L42.188 3.38871Z" fill="#C5C5C5"/>
<path fill-rule="evenodd" clip-rule="evenodd" d="M37.1764 5.78073C38.8508 5.08241 40.5736 4.46095 42.3421 3.92157L45.4903 5.9488C43.8237 6.3757 42.1963 6.87816 40.611 7.45142L37.1764 5.78073Z" fill="#C5C5C5"/>
<path fill-rule="evenodd" clip-rule="evenodd" d="M50.5403 1.68284L46.7853 0.51115L43.9025 3.18286L47.6575 4.35455L50.5403 1.68284Z" fill="#C5C5C5"/>
<path fill-rule="evenodd" clip-rule="evenodd" d="M71.2363 110.612C69.4317 111.037 67.6253 111.368 65.822 111.608L68.6795 114C70.5929 113.66 72.5072 113.223 74.4167 112.684L71.2363 110.612Z" fill="#C5C5C5"/>
<path fill-rule="evenodd" clip-rule="evenodd" d="M65.6988 111.065C67.4978 110.827 69.2998 110.498 71.0996 110.075L72.7954 106.741C71.1401 107.21 69.4804 107.594 67.8216 107.896L65.6988 111.065Z" fill="#C5C5C5"/>
<path fill-rule="evenodd" clip-rule="evenodd" d="M78.1927 108.495C76.4586 109.15 74.711 109.714 72.9542 110.187L76.0999 112.186C77.9524 111.601 79.7936 110.918 81.6164 110.136L78.1927 108.495Z" fill="#C5C5C5"/>
<path fill-rule="evenodd" clip-rule="evenodd" d="M72.7619 109.664C74.5142 109.194 76.2579 108.633 77.9872 107.98L79.2329 104.454C77.6529 105.134 76.0577 105.731 74.4529 106.245L72.7619 109.664Z" fill="#C5C5C5"/>
<path fill-rule="evenodd" clip-rule="evenodd" d="M84.813 105.492C83.1795 106.367 81.5198 107.152 79.8406 107.85L83.2208 109.424C84.981 108.602 86.7169 107.686 88.4227 106.673L84.813 105.492Z" fill="#C5C5C5"/>
<path fill-rule="evenodd" clip-rule="evenodd" d="M79.5811 107.357C81.2569 106.663 82.9127 105.88 84.5419 105.007L85.3166 101.35C83.8389 102.23 82.3355 103.028 80.8112 103.747L79.5811 107.357Z" fill="#C5C5C5"/>
<path fill-rule="evenodd" clip-rule="evenodd" d="M90.9846 101.653C89.4795 102.733 87.9369 103.727 86.3626 104.638L89.9191 105.759C91.557 104.715 93.1588 103.581 94.7175 102.356L90.9846 101.653Z" fill="#C5C5C5"/>
<path fill-rule="evenodd" clip-rule="evenodd" d="M86.0409 104.182C87.6118 103.276 89.1513 102.285 90.653 101.208L90.9437 97.4803C89.5935 98.5452 88.2072 99.5323 86.7896 100.443L86.0409 104.182Z" fill="#C5C5C5"/>
<path fill-rule="evenodd" clip-rule="evenodd" d="M96.6022 97.0448C95.2511 98.3116 93.8513 99.498 92.4093 100.605L96.082 101.254C97.5702 100.007 99.0096 98.6737 100.395 97.2558L96.6022 97.0448Z" fill="#C5C5C5"/>
<path fill-rule="evenodd" clip-rule="evenodd" d="M92.031 100.195C93.4704 99.0924 94.8672 97.9094 96.2152 96.6465L96.0163 92.9134C94.8167 94.1446 93.5714 95.3037 92.2848 96.3912L92.031 100.195Z" fill="#C5C5C5"/>
<path fill-rule="evenodd" clip-rule="evenodd" d="M101.57 91.7452C100.396 93.1766 99.1633 94.5355 97.8784 95.8205L101.604 95.986C102.917 94.5559 104.17 93.0476 105.358 91.4612L101.57 91.7452Z" fill="#C5C5C5"/>
<path fill-rule="evenodd" clip-rule="evenodd" d="M97.4496 95.4631C98.7324 94.1828 99.9629 92.8283 101.135 91.4008L100.45 87.7255C99.4214 89.1017 98.338 90.4133 97.2046 91.6588L97.4496 95.4631Z" fill="#C5C5C5"/>
<path fill-rule="evenodd" clip-rule="evenodd" d="M105.804 85.845C104.827 87.4167 103.782 88.9245 102.675 90.3655L106.391 90.0454C107.506 88.4568 108.551 86.7983 109.523 85.0711L105.804 85.845Z" fill="#C5C5C5"/>
<path fill-rule="evenodd" clip-rule="evenodd" d="M102.204 90.0671C103.309 88.6305 104.352 87.1279 105.327 85.5602L104.168 82.0051C103.328 83.5034 102.426 84.9443 101.465 86.3267L102.204 90.0671Z" fill="#C5C5C5"/>
<path fill-rule="evenodd" clip-rule="evenodd" d="M109.231 79.445C108.467 81.1305 107.628 82.7608 106.719 84.3337L110.361 83.5329C111.258 81.8132 112.079 80.0326 112.816 78.1943L109.231 79.445Z" fill="#C5C5C5"/>
<path fill-rule="evenodd" clip-rule="evenodd" d="M106.213 84.0988C107.121 82.531 107.959 80.9055 108.72 79.2244L107.107 75.85C106.47 77.4447 105.763 78.9912 104.991 80.4864L106.213 84.0988Z" fill="#C5C5C5"/>
<path fill-rule="evenodd" clip-rule="evenodd" d="M111.792 72.6537C111.256 74.4243 110.636 76.1497 109.941 77.8269L113.447 76.5596C114.112 74.7378 114.693 72.8661 115.184 70.947L111.792 72.6537Z" fill="#C5C5C5"/>
<path fill-rule="evenodd" clip-rule="evenodd" d="M109.408 77.6601C110.103 75.9877 110.722 74.2671 111.258 72.5013L109.217 69.3658C108.793 71.0299 108.295 72.6546 107.724 74.238L109.408 77.6601Z" fill="#C5C5C5"/>
<path fill-rule="evenodd" clip-rule="evenodd" d="M113.446 65.5875C113.144 67.4128 112.756 69.2038 112.285 70.9574L115.597 69.245C116.018 67.352 116.349 65.4207 116.586 63.4547L113.446 65.5875Z" fill="#C5C5C5"/>
<path fill-rule="evenodd" clip-rule="evenodd" d="M111.735 70.861C112.206 69.1126 112.595 67.3259 112.895 65.5059L110.463 62.6622C110.261 64.3672 109.978 66.0431 109.619 67.6868L111.735 70.861Z" fill="#C5C5C5"/>
<path fill-rule="evenodd" clip-rule="evenodd" d="M114.161 58.3662C114.101 60.215 113.95 62.0416 113.712 63.8413L116.772 61.7128C116.943 59.7811 117.019 57.8234 116.996 55.8431L114.161 58.3662Z" fill="#C5C5C5"/>
<path fill-rule="evenodd" clip-rule="evenodd" d="M113.155 63.8178C113.393 62.0229 113.545 60.2015 113.606 58.3571L110.823 55.8539C110.845 57.5706 110.783 59.2687 110.643 60.9455L113.155 63.8178Z" fill="#C5C5C5"/>
<path fill-rule="evenodd" clip-rule="evenodd" d="M113.928 51.1137C114.11 52.9547 114.198 54.7852 114.198 56.6005L116.953 54.0925C116.87 52.1552 116.69 50.2039 116.409 48.2436L113.928 51.1137Z" fill="#C5C5C5"/>
<path fill-rule="evenodd" clip-rule="evenodd" d="M113.642 56.6495C113.644 54.839 113.557 53.0129 113.376 51.1767L110.29 49.0565C110.535 50.7559 110.696 52.4479 110.776 54.1281L113.642 56.6495Z" fill="#C5C5C5"/>
<path fill-rule="evenodd" clip-rule="evenodd" d="M112.75 43.9533C113.17 45.7547 113.497 47.5583 113.734 49.3579L116.138 46.513C115.803 44.603 115.369 42.6921 114.835 40.7848L112.75 43.9533Z" fill="#C5C5C5"/>
<path fill-rule="evenodd" clip-rule="evenodd" d="M113.189 49.4791C112.954 47.6838 112.629 45.885 112.21 44.0875L108.873 42.3868C109.339 44.0397 109.72 45.6961 110.017 47.352L113.189 49.4791Z" fill="#C5C5C5"/>
<path fill-rule="evenodd" clip-rule="evenodd" d="M110.646 37.0074C111.298 38.7389 111.858 40.4842 112.328 42.2379L114.34 39.1045C113.758 37.2545 113.079 35.4162 112.3 33.5948L110.646 37.0074Z" fill="#C5C5C5"/>
<path fill-rule="evenodd" clip-rule="evenodd" d="M111.803 42.4285C111.336 40.6788 110.779 38.9373 110.129 37.2102L106.598 35.9577C107.276 37.5359 107.869 39.1288 108.381 40.7318L111.803 42.4285Z" fill="#C5C5C5"/>
<path fill-rule="evenodd" clip-rule="evenodd" d="M107.653 30.3937C108.526 32.0253 109.309 33.6834 110.004 35.361L111.59 31.9927C110.771 30.2339 109.858 28.4998 108.847 26.7952L107.653 30.3937Z" fill="#C5C5C5"/>
<path fill-rule="evenodd" clip-rule="evenodd" d="M109.509 35.6185C108.817 33.9444 108.037 32.2906 107.167 30.6625L103.503 29.8799C104.381 31.3565 105.178 32.8587 105.894 34.3813L109.509 35.6185Z" fill="#C5C5C5"/>
<path fill-rule="evenodd" clip-rule="evenodd" d="M103.822 24.226C104.9 25.7304 105.893 27.2725 106.801 28.8455L107.934 25.3C106.893 23.6627 105.76 22.062 104.536 20.5033L103.822 24.226Z" fill="#C5C5C5"/>
<path fill-rule="evenodd" clip-rule="evenodd" d="M106.344 29.1651C105.44 27.5952 104.45 26.0565 103.375 24.5561L99.6399 24.2564C100.703 25.6062 101.689 26.992 102.599 28.4086L106.344 29.1651Z" fill="#C5C5C5"/>
<path fill-rule="evenodd" clip-rule="evenodd" d="M99.2181 18.6086C100.484 19.9601 101.67 21.3597 102.776 22.8011L103.435 19.1388C102.189 17.651 100.857 16.2109 99.4392 14.8251L99.2181 18.6086Z" fill="#C5C5C5"/>
<path fill-rule="evenodd" clip-rule="evenodd" d="M102.363 23.1777C101.262 21.7384 100.08 20.3418 98.8177 18.9938L95.0757 19.1823C96.3062 20.3822 97.4649 21.6281 98.5513 22.9145L102.363 23.1777Z" fill="#C5C5C5"/>
<path fill-rule="evenodd" clip-rule="evenodd" d="M93.9201 13.6378C95.3517 14.8129 96.7101 16.0467 97.9946 17.3322L98.1704 13.6152C96.741 12.3019 95.232 11.0477 93.6459 9.85778L93.9201 13.6378Z" fill="#C5C5C5"/>
<path fill-rule="evenodd" clip-rule="evenodd" d="M97.6351 17.7587C96.3549 16.4749 95.0008 15.2442 93.5732 14.0716L89.8878 14.7452C91.2645 15.7753 92.576 16.8597 93.8213 17.9941L97.6351 17.7587Z" fill="#C5C5C5"/>
<path fill-rule="evenodd" clip-rule="evenodd" d="M88.0174 9.39831C89.5905 10.3772 91.0983 11.4242 92.5398 12.5317L92.2286 8.82332C90.6395 7.70721 88.9798 6.65972 87.2518 5.68649L88.0174 9.39831Z" fill="#C5C5C5"/>
<path fill-rule="evenodd" clip-rule="evenodd" d="M92.2395 13.0011C90.8027 11.895 89.2993 10.8501 87.7306 9.87341L84.164 11.0204C85.664 11.8624 87.1056 12.767 88.4884 13.7298L92.2395 13.0011Z" fill="#C5C5C5"/>
<path fill-rule="evenodd" clip-rule="evenodd" d="M81.6121 5.96226C83.2996 6.72834 84.9314 7.57041 86.5049 8.48067L85.7119 4.84442C83.9904 3.94459 82.2084 3.12162 80.3677 2.3816L81.6121 5.96226Z" fill="#C5C5C5"/>
<path fill-rule="evenodd" clip-rule="evenodd" d="M86.2681 8.98574C84.699 8.07592 83.0724 7.23514 81.3892 6.47081L78.0033 8.07157C79.5999 8.7117 81.1477 9.42089 82.6445 10.1956L86.2681 8.98574Z" fill="#C5C5C5"/>
<path fill-rule="evenodd" clip-rule="evenodd" d="M74.812 3.38871C76.5848 3.92895 78.3128 4.55128 79.992 5.24961L78.7311 1.74755C76.9069 1.07919 75.0326 0.495082 73.1105 0L74.812 3.38871Z" fill="#C5C5C5"/>
<path fill-rule="evenodd" clip-rule="evenodd" d="M79.8236 5.78073C78.1491 5.08241 76.4263 4.46095 74.6579 3.92157L71.5096 5.9488C73.1762 6.3757 74.8037 6.87816 76.3889 7.45142L79.8236 5.78073Z" fill="#C5C5C5"/>
<path fill-rule="evenodd" clip-rule="evenodd" d="M66.4597 1.68284L70.2147 0.51115L73.0974 3.18286L69.3424 4.35455L66.4597 1.68284Z" fill="#C5C5C5"/>
</svg>
