<svg width="86" height="72" viewBox="0 0 86 72" fill="none" xmlns="http://www.w3.org/2000/svg">
<path d="M54.8408 0H31.1592V5.05339H54.8408V0Z" fill="#BF9874"/>
<path d="M61.1351 9.12223H24.8649V14.1756H61.1351V9.12223Z" fill="#BF9874"/>
<path d="M65.3603 9.12223V14.1756H66.0572C69.2515 14.1829 72.5185 14.3421 70.6164 18.1937L54.7682 43.895V18.5629H50.0348V60.5973L73.5421 22.4724C77.6947 15.7394 82.2975 14.4001 84.5698 14.1756H86V9.12223H65.3603Z" fill="#BF9874"/>
<path d="M31.2318 43.895L15.3836 18.1937C13.4815 14.3421 16.7484 14.1829 19.9428 14.1756H20.6397V9.12223H0V14.1756H1.43019C3.70252 14.4001 8.30526 15.7394 12.4579 22.4724L35.9652 60.5973V18.5629H31.2318V43.895Z" fill="#BF9874"/>
<path d="M40.6335 68.1701L43.0002 72L45.3669 68.1701V18.563H40.6335V68.1701Z" fill="#BF9874"/>
</svg>
