<svg width="18" height="19" viewBox="0 0 18 19" fill="none" xmlns="http://www.w3.org/2000/svg">
<path d="M16.9678 13.4791V15.8877C16.9687 16.1113 16.9229 16.3327 16.8333 16.5375C16.7438 16.7424 16.6124 16.9263 16.4476 17.0775C16.2828 17.2286 16.0883 17.3437 15.8765 17.4154C15.6647 17.487 15.4402 17.5136 15.2175 17.4935C12.7469 17.225 10.3737 16.3808 8.28865 15.0286C6.34875 13.7959 4.70406 12.1512 3.47136 10.2113C2.11448 8.11679 1.27006 5.73206 1.00652 3.25036C0.986453 3.02834 1.01284 2.80457 1.084 2.5933C1.15515 2.38203 1.26952 2.1879 1.41981 2.02325C1.57011 1.85861 1.75304 1.72706 1.95696 1.63699C2.16088 1.54691 2.38132 1.50029 2.60425 1.50008H5.0129C5.40254 1.49624 5.78028 1.63422 6.07572 1.8883C6.37116 2.14237 6.56413 2.49521 6.61866 2.88103C6.72032 3.65185 6.90886 4.4087 7.18068 5.13713C7.2887 5.4245 7.31208 5.73682 7.24804 6.03707C7.18401 6.33732 7.03525 6.61292 6.81938 6.83121L5.79972 7.85087C6.94267 9.86092 8.60696 11.5252 10.617 12.6682L11.6367 11.6485C11.855 11.4326 12.1306 11.2839 12.4308 11.2198C12.7311 11.1558 13.0434 11.1792 13.3308 11.2872C14.0592 11.559 14.816 11.7476 15.5869 11.8492C15.9769 11.9042 16.333 12.1007 16.5877 12.4012C16.8423 12.7017 16.9776 13.0853 16.9678 13.4791Z" stroke="#BF9874" stroke-width="1.5" stroke-linecap="round" stroke-linejoin="round"/>
</svg>
